# xmcd
#
# Track frame offsets:
#	150
#	12614
#	24743
#	37070
#	53587
#	68117
#	82220
#	95228
#	107532
#	119504
#	130563
#	140472
#	151549
#	166447
#	178851
#	188169
#	205697
#
# Disc length: 2887 seconds
#
# Revision: 1
# Processed by: cddbd v1.5.2PL0 Copyright (c) Steve Scherf et al.
# Submitted via: audiograbber 1.83.01
#
DISCID=eb0b4511
DTITLE=Various Artist - Greatest Ever Country
DYEAR=2006
DGENRE=Country
TTITLE0=Johnny Cash - I walk the line
TTITLE1=Dolly Parton - Jolene
TTITLE2=Tammy Wynette - Stand by your man
TTITLE3=The Flying Burrito Brothers - Hot Burrito #1
TTITLE4=Jeannie C Riley - Harper Valley PTA
TTITLE5=Rita Remington - Angel of the morning
TTITLE6=Patsy Cline and Jim Reeves - I fall to pieces
TTITLE7=Reba McEntire - How blue
TTITLE8=Skeeter Davis - End of the world
TTITLE9=The Statler Brothers - Flowers on the Wall
TTITLE10=Tom T Hall - Country is
TTITLE11=Waylon Jennings - This time
TTITLE12=George Jones - He stopped loving her today
TTITLE13=Crystal Gayle - I've cried (the blue right out of my eyes)
TTITLE14=Charley Pride - Kiss an angel good morning
TTITLE15=Billie Jo Spears - Blanket on the ground
TTITLE16=Jim Reeves - Welcome to my world
EXTD=
EXTT0=
EXTT1=
EXTT2=
EXTT3=
EXTT4=
EXTT5=
EXTT6=
EXTT7=
EXTT8=
EXTT9=
EXTT10=
EXTT11=
EXTT12=
EXTT13=
EXTT14=
EXTT15=
EXTT16=
PLAYORDER=
